# xmcd
#
# Track frame offsets: 
#        150
#        16627
#        29044
#        50085
#        67237
#        84389
#        108113
#        123684
#        138575
#        158152
#
# Disc length: 2475 seconds
#
# Revision: 0
# Processed by: cddbd v1.5.2PL0 Copyright (c) Steve Scherf et al.
# Submitted via: ExactAudioCopy v1.0b4
#
DISCID=8909a90a
DTITLE=Various Artist - Blues Selection Voll II (DLP) LP 2
DYEAR=1900
DGENRE=Blues
TTITLE0=Don Nix - Don Nix - Black Cat Moan
TTITLE1=Albert King - Albert King - Born Under A Bad Sign
TTITLE2=John Lee Hooker - John Lee Hooker - Goin' Down To Louisiana
TTITLE3=Little Milton - Little Milton - Walking The Backstreet And Cry
TTITLE3=ing
TTITLE4=Albert King - Albert King - I'm Doing Fine
TTITLE5=Albert King - Albert King - The Blues Don't Change
TTITLE6=John Lee Hooker - John Lee Hooker - My Love Comes Down For You
TTITLE7=Johnny Taylor - Johnny Taylor - Part Time Love
TTITLE8=Albert King - Albert King - Everybody Wants To Go To Heaven
TTITLE9=Little Milton - Little Milton - The Thrill Is Gone
EXTD=
EXTT0=
EXTT1=
EXTT2=
EXTT3=
EXTT4=
EXTT5=
EXTT6=
EXTT7=
EXTT8=
EXTT9=
PLAYORDER=
